<svg width="512" height="448" viewBox="0 0 512 448" fill="none" xmlns="http://www.w3.org/2000/svg">
<path d="M464 0H48C21.5 0 0 21.5 0 48V400C0 426.5 21.5 448 48 448H464C490.5 448 512 426.5 512 400V48C512 21.5 490.5 0 464 0ZM380.4 290.5C385.2 295.3 385.2 303.1 380.4 307.9L339.9 348.4C335.1 353.2 327.3 353.2 322.5 348.4L256 281.3L189.5 348.4C184.7 353.2 176.9 353.2 172.1 348.4L131.6 307.9C126.8 303.1 126.8 295.3 131.6 290.5L198.7 224L131.6 157.5C126.8 152.7 126.8 144.9 131.6 140.1L172.1 99.6C176.9 94.8 184.7 94.8 189.5 99.6L256 166.7L322.5 99.6C327.3 94.8 335.1 94.8 339.9 99.6L380.4 140.1C385.2 144.9 385.2 152.7 380.4 157.5L313.3 224L380.4 290.5Z" fill="#F04747"/>
</svg>
